<?xml version="1.0" encoding="UTF-8" standalone="no"?>
<!DOCTYPE svg PUBLIC "-//W3C//DTD SVG 1.1//EN"
 "http://www.w3.org/Graphics/SVG/1.1/DTD/svg11.dtd">
<!-- Generated by graphviz version 2.43.0 (0)
 -->
<!-- Title: %3 Pages: 1 -->
<svg width="364pt" height="209pt"
 viewBox="0.00 0.00 364.00 209.00" xmlns="http://www.w3.org/2000/svg" xmlns:xlink="http://www.w3.org/1999/xlink">
<g id="graph0" class="graph" transform="scale(1 1) rotate(0) translate(4 205)">
<title>%3</title>
<polygon fill="white" stroke="transparent" points="-4,4 -4,-205 360,-205 360,4 -4,4"/>
<g id="clust1" class="cluster">
<title>cluster</title>
<polygon fill="none" stroke="black" points="8,-8 8,-157 348,-157 348,-8 8,-8"/>
<text text-anchor="middle" x="178" y="-141.8" font-family="Times,serif" font-size="14.00">Edges represent relocations</text>
</g>
<!-- unused -->
<g id="node1" class="node">
<title>unused</title>
<ellipse fill="none" stroke="black" cx="264" cy="-183" rx="36" ry="18"/>
<text text-anchor="middle" x="264" y="-179.3" font-family="Times,serif" font-size="14.00">unused</text>
</g>
<!-- fde_a -->
<g id="node2" class="node">
<title>fde_a</title>
<polygon fill="none" stroke="black" points="210,-89.5 210,-125.5 318,-125.5 318,-89.5 210,-89.5"/>
<text text-anchor="middle" x="264" y="-103.8" font-family="Times,serif" font-size="14.00">.eh_frame FDE0</text>
</g>
<!-- unused&#45;&gt;fde_a -->
<g id="edge3" class="edge">
<title>unused&#45;&gt;fde_a</title>
<path fill="none" stroke="black" d="M264,-164.95C264,-156.3 264,-145.57 264,-135.79"/>
<polygon fill="black" stroke="black" points="267.5,-135.71 264,-125.71 260.5,-135.71 267.5,-135.71"/>
</g>
<!-- lsda_a -->
<g id="node4" class="node">
<title>lsda_a</title>
<polygon fill="none" stroke="black" points="188,-16.5 188,-52.5 340,-52.5 340,-16.5 188,-16.5"/>
<text text-anchor="middle" x="264" y="-30.8" font-family="Times,serif" font-size="14.00">.gcc_except_table._Z1av</text>
</g>
<!-- fde_a&#45;&gt;lsda_a -->
<g id="edge1" class="edge">
<title>fde_a&#45;&gt;lsda_a</title>
<path fill="none" stroke="black" d="M264,-89.31C264,-81.29 264,-71.55 264,-62.57"/>
<polygon fill="black" stroke="black" points="267.5,-62.53 264,-52.53 260.5,-62.53 267.5,-62.53"/>
</g>
<!-- fde_b -->
<g id="node3" class="node">
<title>fde_b</title>
<polygon fill="none" stroke="black" points="39,-89.5 39,-125.5 147,-125.5 147,-89.5 39,-89.5"/>
<text text-anchor="middle" x="93" y="-103.8" font-family="Times,serif" font-size="14.00">.eh_frame FDE1</text>
</g>
<!-- lsda_b -->
<g id="node5" class="node">
<title>lsda_b</title>
<polygon fill="none" stroke="black" points="16.5,-16.5 16.5,-52.5 169.5,-52.5 169.5,-16.5 16.5,-16.5"/>
<text text-anchor="middle" x="93" y="-30.8" font-family="Times,serif" font-size="14.00">.gcc_except_table._Z1bv</text>
</g>
<!-- fde_b&#45;&gt;lsda_b -->
<g id="edge2" class="edge">
<title>fde_b&#45;&gt;lsda_b</title>
<path fill="none" stroke="black" d="M93,-89.31C93,-81.29 93,-71.55 93,-62.57"/>
<polygon fill="black" stroke="black" points="96.5,-62.53 93,-52.53 89.5,-62.53 96.5,-62.53"/>
</g>
</g>
</svg>
