<?xml version="1.0" encoding="UTF-8" standalone="no"?>
<!DOCTYPE svg PUBLIC "-//W3C//DTD SVG 1.1//EN"
 "http://www.w3.org/Graphics/SVG/1.1/DTD/svg11.dtd">
<!-- Generated by graphviz version 2.43.0 (0)
 -->
<!-- Title: %3 Pages: 1 -->
<svg width="496pt" height="173pt"
 viewBox="0.00 0.00 496.00 173.00" xmlns="http://www.w3.org/2000/svg" xmlns:xlink="http://www.w3.org/1999/xlink">
<g id="graph0" class="graph" transform="scale(1 1) rotate(0) translate(4 169)">
<title>%3</title>
<polygon fill="white" stroke="transparent" points="-4,4 -4,-169 492,-169 492,4 -4,4"/>
<g id="clust1" class="cluster">
<title>cluster</title>
<polygon fill="none" stroke="black" points="8,-8 8,-157 480,-157 480,-8 8,-8"/>
<text text-anchor="middle" x="244" y="-141.8" font-family="Times,serif" font-size="14.00">Edges represent GC references</text>
</g>
<!-- eh_frame -->
<g id="node1" class="node">
<title>eh_frame</title>
<polygon fill="none" stroke="black" points="342.5,-89.5 342.5,-125.5 471.5,-125.5 471.5,-89.5 342.5,-89.5"/>
<text text-anchor="middle" x="407" y="-103.8" font-family="Times,serif" font-size="14.00">.eh_frame (GC root)</text>
</g>
<!-- lsda -->
<g id="node4" class="node">
<title>lsda</title>
<polygon fill="none" stroke="black" points="358,-16.5 358,-52.5 472,-52.5 472,-16.5 358,-16.5"/>
<text text-anchor="middle" x="415" y="-30.8" font-family="Times,serif" font-size="14.00">.gcc_except_table</text>
</g>
<!-- eh_frame&#45;&gt;lsda -->
<g id="edge1" class="edge">
<title>eh_frame&#45;&gt;lsda</title>
<path fill="none" stroke="black" d="M408.94,-89.31C409.84,-81.29 410.94,-71.55 411.95,-62.57"/>
<polygon fill="black" stroke="black" points="415.44,-62.86 413.08,-52.53 408.48,-62.07 415.44,-62.86"/>
</g>
<!-- text_a -->
<g id="node2" class="node">
<title>text_a</title>
<polygon fill="none" stroke="black" points="224.5,-89.5 224.5,-125.5 303.5,-125.5 303.5,-89.5 224.5,-89.5"/>
<text text-anchor="middle" x="264" y="-103.8" font-family="Times,serif" font-size="14.00">.text._Z1av</text>
</g>
<!-- lsda_a -->
<g id="node5" class="node">
<title>lsda_a</title>
<polygon fill="none" stroke="black" points="188,-16.5 188,-52.5 340,-52.5 340,-16.5 188,-16.5"/>
<text text-anchor="middle" x="264" y="-30.8" font-family="Times,serif" font-size="14.00">.gcc_except_table._Z1av</text>
</g>
<!-- text_a&#45;&gt;lsda_a -->
<g id="edge2" class="edge">
<title>text_a&#45;&gt;lsda_a</title>
<path fill="none" stroke="black" d="M258.12,-89.31C257.28,-81.29 257.05,-71.55 257.42,-62.57"/>
<polygon fill="black" stroke="black" points="260.92,-62.75 258.14,-52.53 253.94,-62.25 260.92,-62.75"/>
</g>
<!-- text_b -->
<g id="node3" class="node">
<title>text_b</title>
<polygon fill="none" stroke="black" points="53,-89.5 53,-125.5 133,-125.5 133,-89.5 53,-89.5"/>
<text text-anchor="middle" x="93" y="-103.8" font-family="Times,serif" font-size="14.00">.text._Z1bv</text>
</g>
<!-- lsda_b -->
<g id="node6" class="node">
<title>lsda_b</title>
<polygon fill="none" stroke="black" points="16.5,-16.5 16.5,-52.5 169.5,-52.5 169.5,-16.5 16.5,-16.5"/>
<text text-anchor="middle" x="93" y="-30.8" font-family="Times,serif" font-size="14.00">.gcc_except_table._Z1bv</text>
</g>
<!-- text_b&#45;&gt;lsda_b -->
<g id="edge4" class="edge">
<title>text_b&#45;&gt;lsda_b</title>
<path fill="none" stroke="black" d="M87.12,-89.31C86.28,-81.29 86.05,-71.55 86.42,-62.57"/>
<polygon fill="black" stroke="black" points="89.92,-62.75 87.14,-52.53 82.94,-62.25 89.92,-62.75"/>
</g>
<!-- lsda_a&#45;&gt;text_a -->
<g id="edge3" class="edge">
<title>lsda_a&#45;&gt;text_a</title>
<path fill="none" stroke="black" d="M269.86,-52.53C270.71,-60.53 270.95,-70.27 270.59,-79.25"/>
<polygon fill="black" stroke="black" points="267.09,-79.09 269.88,-89.31 274.07,-79.58 267.09,-79.09"/>
</g>
<!-- lsda_b&#45;&gt;text_b -->
<g id="edge5" class="edge">
<title>lsda_b&#45;&gt;text_b</title>
<path fill="none" stroke="black" d="M98.86,-52.53C99.71,-60.53 99.95,-70.27 99.59,-79.25"/>
<polygon fill="black" stroke="black" points="96.09,-79.09 98.88,-89.31 103.07,-79.58 96.09,-79.09"/>
</g>
</g>
</svg>
