<?xml version="1.0" encoding="UTF-8" standalone="no"?>
<!DOCTYPE svg PUBLIC "-//W3C//DTD SVG 1.1//EN"
 "http://www.w3.org/Graphics/SVG/1.1/DTD/svg11.dtd">
<!-- Generated by graphviz version 2.43.0 (0)
 -->
<!-- Title: %3 Pages: 1 -->
<svg width="496pt" height="246pt"
 viewBox="0.00 0.00 496.00 246.00" xmlns="http://www.w3.org/2000/svg" xmlns:xlink="http://www.w3.org/1999/xlink">
<g id="graph0" class="graph" transform="scale(1 1) rotate(0) translate(4 242)">
<title>%3</title>
<polygon fill="white" stroke="transparent" points="-4,4 -4,-242 492,-242 492,4 -4,4"/>
<g id="clust1" class="cluster">
<title>cluster</title>
<polygon fill="none" stroke="black" points="8,-8 8,-230 480,-230 480,-8 8,-8"/>
<text text-anchor="middle" x="244" y="-214.8" font-family="Times,serif" font-size="14.00">Edges represent GC references</text>
</g>
<!-- eh_frame -->
<g id="node1" class="node">
<title>eh_frame</title>
<polygon fill="none" stroke="black" points="159.5,-162.5 159.5,-198.5 288.5,-198.5 288.5,-162.5 159.5,-162.5"/>
<text text-anchor="middle" x="224" y="-176.8" font-family="Times,serif" font-size="14.00">.eh_frame (GC root)</text>
</g>
<!-- lsda -->
<g id="node4" class="node">
<title>lsda</title>
<polygon fill="none" stroke="black" points="16,-89.5 16,-125.5 130,-125.5 130,-89.5 16,-89.5"/>
<text text-anchor="middle" x="73" y="-103.8" font-family="Times,serif" font-size="14.00">.gcc_except_table</text>
</g>
<!-- eh_frame&#45;&gt;lsda -->
<g id="edge1" class="edge">
<title>eh_frame&#45;&gt;lsda</title>
<path fill="none" stroke="black" d="M187.83,-162.49C167.07,-152.73 140.79,-140.38 118.62,-129.95"/>
<polygon fill="black" stroke="black" points="119.94,-126.7 109.4,-125.61 116.96,-133.04 119.94,-126.7"/>
</g>
<!-- lsda_a -->
<g id="node5" class="node">
<title>lsda_a</title>
<polygon fill="none" stroke="black" points="148,-89.5 148,-125.5 300,-125.5 300,-89.5 148,-89.5"/>
<text text-anchor="middle" x="224" y="-103.8" font-family="Times,serif" font-size="14.00">.gcc_except_table._Z1av</text>
</g>
<!-- eh_frame&#45;&gt;lsda_a -->
<g id="edge2" class="edge">
<title>eh_frame&#45;&gt;lsda_a</title>
<path fill="none" stroke="black" d="M224,-162.31C224,-154.29 224,-144.55 224,-135.57"/>
<polygon fill="black" stroke="black" points="227.5,-135.53 224,-125.53 220.5,-135.53 227.5,-135.53"/>
</g>
<!-- lsda_b -->
<g id="node6" class="node">
<title>lsda_b</title>
<polygon fill="none" stroke="black" points="318.5,-89.5 318.5,-125.5 471.5,-125.5 471.5,-89.5 318.5,-89.5"/>
<text text-anchor="middle" x="395" y="-103.8" font-family="Times,serif" font-size="14.00">.gcc_except_table._Z1bv</text>
</g>
<!-- eh_frame&#45;&gt;lsda_b -->
<g id="edge3" class="edge">
<title>eh_frame&#45;&gt;lsda_b</title>
<path fill="none" stroke="black" d="M264.96,-162.49C288.79,-152.6 319.03,-140.04 344.34,-129.53"/>
<polygon fill="black" stroke="black" points="345.89,-132.68 353.78,-125.61 343.21,-126.22 345.89,-132.68"/>
</g>
<!-- text_a -->
<g id="node2" class="node">
<title>text_a</title>
<polygon fill="none" stroke="black" points="184.5,-16.5 184.5,-52.5 263.5,-52.5 263.5,-16.5 184.5,-16.5"/>
<text text-anchor="middle" x="224" y="-30.8" font-family="Times,serif" font-size="14.00">.text._Z1av</text>
</g>
<!-- text_a&#45;&gt;lsda_a -->
<g id="edge4" class="edge">
<title>text_a&#45;&gt;lsda_a</title>
<path fill="none" stroke="black" d="M229.86,-52.53C230.71,-60.53 230.95,-70.27 230.59,-79.25"/>
<polygon fill="black" stroke="black" points="227.09,-79.09 229.88,-89.31 234.07,-79.58 227.09,-79.09"/>
</g>
<!-- text_b -->
<g id="node3" class="node">
<title>text_b</title>
<polygon fill="none" stroke="black" points="355,-16.5 355,-52.5 435,-52.5 435,-16.5 355,-16.5"/>
<text text-anchor="middle" x="395" y="-30.8" font-family="Times,serif" font-size="14.00">.text._Z1bv</text>
</g>
<!-- text_b&#45;&gt;lsda_b -->
<g id="edge6" class="edge">
<title>text_b&#45;&gt;lsda_b</title>
<path fill="none" stroke="black" d="M400.86,-52.53C401.71,-60.53 401.95,-70.27 401.59,-79.25"/>
<polygon fill="black" stroke="black" points="398.09,-79.09 400.88,-89.31 405.07,-79.58 398.09,-79.09"/>
</g>
<!-- lsda_a&#45;&gt;text_a -->
<g id="edge5" class="edge">
<title>lsda_a&#45;&gt;text_a</title>
<path fill="none" stroke="black" d="M218.12,-89.31C217.28,-81.29 217.05,-71.55 217.42,-62.57"/>
<polygon fill="black" stroke="black" points="220.92,-62.75 218.14,-52.53 213.94,-62.25 220.92,-62.75"/>
</g>
<!-- lsda_b&#45;&gt;text_b -->
<g id="edge7" class="edge">
<title>lsda_b&#45;&gt;text_b</title>
<path fill="none" stroke="black" d="M389.12,-89.31C388.28,-81.29 388.05,-71.55 388.42,-62.57"/>
<polygon fill="black" stroke="black" points="391.92,-62.75 389.14,-52.53 384.94,-62.25 391.92,-62.75"/>
</g>
</g>
</svg>
