<?xml version="1.0" encoding="UTF-8" standalone="no"?>
<!DOCTYPE svg PUBLIC "-//W3C//DTD SVG 1.1//EN"
 "http://www.w3.org/Graphics/SVG/1.1/DTD/svg11.dtd">
<!-- Generated by graphviz version 2.43.0 (0)
 -->
<!-- Title: %3 Pages: 1 -->
<svg width="274pt" height="219pt"
 viewBox="0.00 0.00 274.00 219.00" xmlns="http://www.w3.org/2000/svg" xmlns:xlink="http://www.w3.org/1999/xlink">
<g id="graph0" class="graph" transform="scale(1 1) rotate(0) translate(4 215)">
<title>%3</title>
<polygon fill="white" stroke="transparent" points="-4,4 -4,-215 270,-215 270,4 -4,4"/>
<g id="clust1" class="cluster">
<title>cluster</title>
<polygon fill="none" stroke="black" points="8,-8 8,-167 258,-167 258,-8 8,-8"/>
<text text-anchor="middle" x="133" y="-151.8" font-family="Times,serif" font-size="14.00">Edges represent relocations</text>
</g>
<!-- unused -->
<g id="node1" class="node">
<title>unused</title>
<ellipse fill="none" stroke="black" cx="70" cy="-193" rx="36" ry="18"/>
<text text-anchor="middle" x="70" y="-189.3" font-family="Times,serif" font-size="14.00">unused</text>
</g>
<!-- fde_a -->
<g id="node2" class="node">
<title>fde_a</title>
<polygon fill="none" stroke="black" points="16,-99.5 16,-135.5 124,-135.5 124,-99.5 16,-99.5"/>
<text text-anchor="middle" x="70" y="-113.8" font-family="Times,serif" font-size="14.00">.eh_frame FDE0</text>
</g>
<!-- unused&#45;&gt;fde_a -->
<g id="edge3" class="edge">
<title>unused&#45;&gt;fde_a</title>
<path fill="none" stroke="black" d="M70,-174.95C70,-166.3 70,-155.57 70,-145.79"/>
<polygon fill="black" stroke="black" points="73.5,-145.71 70,-135.71 66.5,-145.71 73.5,-145.71"/>
</g>
<!-- lsda -->
<g id="node4" class="node">
<title>lsda</title>
<polygon fill="none" stroke="black" points="76,-16.5 76,-62.5 190,-62.5 190,-16.5 76,-16.5"/>
<text text-anchor="middle" x="133" y="-47.3" font-family="Times,serif" font-size="14.00">.gcc_except_table</text>
<polyline fill="none" stroke="black" points="76,-39.5 190,-39.5 "/>
<text text-anchor="middle" x="104" y="-24.3" font-family="Times,serif" font-size="14.00">lsda_a</text>
<polyline fill="none" stroke="black" points="132,-16.5 132,-39.5 "/>
<text text-anchor="middle" x="161" y="-24.3" font-family="Times,serif" font-size="14.00">lsda_b</text>
</g>
<!-- fde_a&#45;&gt;lsda -->
<g id="edge1" class="edge">
<title>fde_a&#45;&gt;lsda:a</title>
<path fill="none" stroke="black" d="M64.21,-99.34C57.5,-77.11 49.26,-40.03 65.15,-30.04"/>
<polygon fill="black" stroke="black" points="66.19,-33.39 75,-27.5 64.44,-26.61 66.19,-33.39"/>
</g>
<!-- fde_b -->
<g id="node3" class="node">
<title>fde_b</title>
<polygon fill="none" stroke="black" points="142,-99.5 142,-135.5 250,-135.5 250,-99.5 142,-99.5"/>
<text text-anchor="middle" x="196" y="-113.8" font-family="Times,serif" font-size="14.00">.eh_frame FDE1</text>
</g>
<!-- fde_b&#45;&gt;lsda -->
<g id="edge2" class="edge">
<title>fde_b&#45;&gt;lsda:b</title>
<path fill="none" stroke="black" d="M201.79,-99.34C208.5,-77.11 216.74,-40.03 200.85,-30.04"/>
<polygon fill="black" stroke="black" points="201.56,-26.61 191,-27.5 199.81,-33.39 201.56,-26.61"/>
</g>
</g>
</svg>
